<?xml version="1.0" encoding="utf-8" standalone="no"?>
<!DOCTYPE svg PUBLIC "-//W3C//DTD SVG 1.1//EN"
  "http://www.w3.org/Graphics/SVG/1.1/DTD/svg11.dtd">
<svg xmlns:xlink="http://www.w3.org/1999/xlink" width="708.245625pt" height="419.909687pt" viewBox="0 0 708.245625 419.909687" xmlns="http://www.w3.org/2000/svg" version="1.1">
 <metadata>
  <rdf:RDF xmlns:dc="http://purl.org/dc/elements/1.1/" xmlns:cc="http://creativecommons.org/ns#" xmlns:rdf="http://www.w3.org/1999/02/22-rdf-syntax-ns#">
   <cc:Work>
    <dc:type rdf:resource="http://purl.org/dc/dcmitype/StillImage"/>
    <dc:date>2025-04-25T18:15:53.869965</dc:date>
    <dc:format>image/svg+xml</dc:format>
    <dc:creator>
     <cc:Agent>
      <dc:title>Matplotlib v3.10.1, https://matplotlib.org/</dc:title>
     </cc:Agent>
    </dc:creator>
   </cc:Work>
  </rdf:RDF>
 </metadata>
 <defs>
  <style type="text/css">*{stroke-linejoin: round; stroke-linecap: butt}</style>
 </defs>
 <g id="figure_1">
  <g id="patch_1">
   <path d="M -0 419.909687 
L 708.245625 419.909687 
L 708.245625 0 
L -0 0 
z
" style="fill: #ffffff"/>
  </g>
  <g id="axes_1">
   <g id="patch_2">
    <path d="M 51.805625 377.345937 
L 701.045625 377.345937 
L 701.045625 24.445938 
L 51.805625 24.445938 
z
" style="fill: #ffffff"/>
   </g>
   <g id="FillBetweenPolyCollection_1">
    <defs>
     <path id="mfa72d513d5" d="M 81.316534 -250.943337 
L 81.316534 -179.295416 
L 228.862197 -209.557077 
L 376.407859 -213.178705 
L 523.953522 -232.65951 
L 671.534716 -237.063835 
L 671.534716 -288.519231 
L 671.534716 -288.519231 
L 523.953522 -282.83449 
L 376.407859 -276.403037 
L 228.862197 -267.653965 
L 81.316534 -250.943337 
z
" style="stroke: #28a745; stroke-opacity: 0.2"/>
    </defs>
    <g clip-path="url(#p78143791a1)">
     <use xlink:href="#mfa72d513d5" x="0" y="419.909687" style="fill: #28a745; fill-opacity: 0.2; stroke: #28a745; stroke-opacity: 0.2"/>
    </g>
   </g>
   <g id="matplotlib.axis_1">
    <g id="xtick_1">
     <g id="line2d_1">
      <path d="M 104.589841 377.345937 
L 104.589841 24.445938 
" clip-path="url(#p78143791a1)" style="fill: none; stroke-dasharray: 2.96,1.28; stroke-dashoffset: 0; stroke: #b0b0b0; stroke-opacity: 0.7; stroke-width: 0.8"/>
     </g>
     <g id="line2d_2">
      <defs>
       <path id="m7effa63741" d="M 0 0 
L 0 3.5 
" style="stroke: #000000; stroke-width: 0.8"/>
      </defs>
      <g>
       <use xlink:href="#m7effa63741" x="104.589841" y="377.345937" style="stroke: #000000; stroke-width: 0.8"/>
      </g>
     </g>
     <g id="text_1">
      <!-- 1000 -->
      <g transform="translate(90.186091 393.803437) scale(0.12 -0.12)">
       <defs>
        <path id="Monaco-31" d="M 1775 484 
L 1775 4228 
Q 1513 4019 1266 3872 
Q 1019 3725 588 3572 
L 588 4097 
Q 1272 4388 1775 4850 
L 2356 4850 
L 2356 484 
L 3522 484 
L 3522 0 
L 588 0 
L 588 484 
L 1775 484 
z
" transform="scale(0.015625)"/>
        <path id="Monaco-30" d="M 1919 4994 
Q 2747 4994 3181 4298 
Q 3616 3603 3616 2425 
Q 3616 1244 3181 548 
Q 2747 -147 1919 -147 
Q 1094 -147 658 548 
Q 222 1244 222 2425 
Q 222 3603 658 4298 
Q 1094 4994 1919 4994 
z
M 972 1388 
L 2650 4016 
Q 2491 4306 2305 4407 
Q 2119 4509 1919 4509 
Q 1397 4509 1125 3929 
Q 853 3350 853 2459 
Q 853 2256 865 2022 
Q 878 1788 972 1388 
z
M 2859 3438 
L 1194 794 
Q 1328 566 1503 452 
Q 1678 338 1894 338 
Q 2488 338 2738 1002 
Q 2988 1666 2988 2475 
Q 2988 2975 2859 3438 
z
" transform="scale(0.015625)"/>
       </defs>
       <use xlink:href="#Monaco-31"/>
       <use xlink:href="#Monaco-30" transform="translate(60.009766 0)"/>
       <use xlink:href="#Monaco-30" transform="translate(120.019531 0)"/>
       <use xlink:href="#Monaco-30" transform="translate(180.029297 0)"/>
      </g>
     </g>
    </g>
    <g id="xtick_2">
     <g id="line2d_3">
      <path d="M 193.419259 377.345937 
L 193.419259 24.445938 
" clip-path="url(#p78143791a1)" style="fill: none; stroke-dasharray: 2.96,1.28; stroke-dashoffset: 0; stroke: #b0b0b0; stroke-opacity: 0.7; stroke-width: 0.8"/>
     </g>
     <g id="line2d_4">
      <g>
       <use xlink:href="#m7effa63741" x="193.419259" y="377.345937" style="stroke: #000000; stroke-width: 0.8"/>
      </g>
     </g>
     <g id="text_2">
      <!-- 2000 -->
      <g transform="translate(179.015509 393.803437) scale(0.12 -0.12)">
       <defs>
        <path id="Monaco-32" d="M 3400 0 
L 466 0 
L 466 534 
Q 466 741 550 977 
Q 634 1213 871 1506 
Q 1109 1800 1375 2072 
L 1706 2409 
Q 1806 2513 2143 2888 
Q 2481 3263 2589 3463 
Q 2697 3663 2697 3856 
Q 2697 4169 2447 4339 
Q 2197 4509 1884 4509 
Q 1706 4509 1486 4468 
Q 1266 4428 1100 4373 
Q 934 4319 563 4150 
L 563 4666 
Q 956 4853 1351 4923 
Q 1747 4994 2003 4994 
Q 2381 4994 2698 4870 
Q 3016 4747 3170 4487 
Q 3325 4228 3325 3934 
Q 3325 3606 3126 3262 
Q 2928 2919 2378 2378 
L 2022 2025 
L 1722 1731 
Q 1438 1444 1263 1175 
Q 1088 906 1069 534 
L 3400 534 
L 3400 0 
z
" transform="scale(0.015625)"/>
       </defs>
       <use xlink:href="#Monaco-32"/>
       <use xlink:href="#Monaco-30" transform="translate(60.009766 0)"/>
       <use xlink:href="#Monaco-30" transform="translate(120.019531 0)"/>
       <use xlink:href="#Monaco-30" transform="translate(180.029297 0)"/>
      </g>
     </g>
    </g>
    <g id="xtick_3">
     <g id="line2d_5">
      <path d="M 282.248677 377.345937 
L 282.248677 24.445938 
" clip-path="url(#p78143791a1)" style="fill: none; stroke-dasharray: 2.96,1.28; stroke-dashoffset: 0; stroke: #b0b0b0; stroke-opacity: 0.7; stroke-width: 0.8"/>
     </g>
     <g id="line2d_6">
      <g>
       <use xlink:href="#m7effa63741" x="282.248677" y="377.345937" style="stroke: #000000; stroke-width: 0.8"/>
      </g>
     </g>
     <g id="text_3">
      <!-- 3000 -->
      <g transform="translate(267.844927 393.803437) scale(0.12 -0.12)">
       <defs>
        <path id="Monaco-33" d="M 453 88 
L 453 700 
Q 1169 338 1694 338 
Q 2175 338 2489 630 
Q 2803 922 2803 1381 
Q 2803 1844 2458 2134 
Q 2113 2425 1284 2425 
L 963 2425 
L 963 2909 
L 1409 2909 
Q 2019 2909 2291 3182 
Q 2563 3456 2563 3791 
Q 2563 4094 2341 4301 
Q 2119 4509 1659 4509 
Q 1144 4509 550 4219 
L 550 4772 
Q 1144 4994 1638 4994 
Q 2522 4994 2858 4645 
Q 3194 4297 3194 3850 
Q 3194 3519 3016 3228 
Q 2838 2938 2359 2709 
Q 2781 2584 2997 2403 
Q 3213 2222 3323 1975 
Q 3434 1728 3434 1422 
Q 3434 741 2929 297 
Q 2425 -147 1625 -147 
Q 1394 -147 1120 -112 
Q 847 -78 453 88 
z
" transform="scale(0.015625)"/>
       </defs>
       <use xlink:href="#Monaco-33"/>
       <use xlink:href="#Monaco-30" transform="translate(60.009766 0)"/>
       <use xlink:href="#Monaco-30" transform="translate(120.019531 0)"/>
       <use xlink:href="#Monaco-30" transform="translate(180.029297 0)"/>
      </g>
     </g>
    </g>
    <g id="xtick_4">
     <g id="line2d_7">
      <path d="M 371.078094 377.345937 
L 371.078094 24.445938 
" clip-path="url(#p78143791a1)" style="fill: none; stroke-dasharray: 2.96,1.28; stroke-dashoffset: 0; stroke: #b0b0b0; stroke-opacity: 0.7; stroke-width: 0.8"/>
     </g>
     <g id="line2d_8">
      <g>
       <use xlink:href="#m7effa63741" x="371.078094" y="377.345937" style="stroke: #000000; stroke-width: 0.8"/>
      </g>
     </g>
     <g id="text_4">
      <!-- 4000 -->
      <g transform="translate(356.674344 393.803437) scale(0.12 -0.12)">
       <defs>
        <path id="Monaco-34" d="M 2209 0 
L 2209 1356 
L 150 1356 
L 150 1844 
L 2209 4850 
L 2794 4850 
L 2794 1844 
L 3691 1844 
L 3691 1356 
L 2794 1356 
L 2794 0 
L 2209 0 
z
M 2209 1844 
L 2209 3969 
L 769 1844 
L 2209 1844 
z
" transform="scale(0.015625)"/>
       </defs>
       <use xlink:href="#Monaco-34"/>
       <use xlink:href="#Monaco-30" transform="translate(60.009766 0)"/>
       <use xlink:href="#Monaco-30" transform="translate(120.019531 0)"/>
       <use xlink:href="#Monaco-30" transform="translate(180.029297 0)"/>
      </g>
     </g>
    </g>
    <g id="xtick_5">
     <g id="line2d_9">
      <path d="M 459.907512 377.345937 
L 459.907512 24.445938 
" clip-path="url(#p78143791a1)" style="fill: none; stroke-dasharray: 2.96,1.28; stroke-dashoffset: 0; stroke: #b0b0b0; stroke-opacity: 0.7; stroke-width: 0.8"/>
     </g>
     <g id="line2d_10">
      <g>
       <use xlink:href="#m7effa63741" x="459.907512" y="377.345937" style="stroke: #000000; stroke-width: 0.8"/>
      </g>
     </g>
     <g id="text_5">
      <!-- 5000 -->
      <g transform="translate(445.503762 393.803437) scale(0.12 -0.12)">
       <defs>
        <path id="Monaco-35" d="M 588 2522 
L 588 4850 
L 3303 4850 
L 3303 4291 
L 1169 4291 
L 1169 3103 
L 1269 3103 
Q 2316 3103 2881 2665 
Q 3447 2228 3447 1488 
Q 3447 1019 3219 647 
Q 2991 275 2575 64 
Q 2159 -147 1691 -147 
Q 1222 -147 491 81 
L 491 716 
Q 756 572 1084 480 
Q 1413 388 1691 388 
Q 1969 388 2234 522 
Q 2500 656 2647 914 
Q 2794 1172 2794 1441 
Q 2794 1894 2392 2208 
Q 1991 2522 966 2522 
L 588 2522 
z
" transform="scale(0.015625)"/>
       </defs>
       <use xlink:href="#Monaco-35"/>
       <use xlink:href="#Monaco-30" transform="translate(60.009766 0)"/>
       <use xlink:href="#Monaco-30" transform="translate(120.019531 0)"/>
       <use xlink:href="#Monaco-30" transform="translate(180.029297 0)"/>
      </g>
     </g>
    </g>
    <g id="xtick_6">
     <g id="line2d_11">
      <path d="M 548.736929 377.345937 
L 548.736929 24.445938 
" clip-path="url(#p78143791a1)" style="fill: none; stroke-dasharray: 2.96,1.28; stroke-dashoffset: 0; stroke: #b0b0b0; stroke-opacity: 0.7; stroke-width: 0.8"/>
     </g>
     <g id="line2d_12">
      <g>
       <use xlink:href="#m7effa63741" x="548.736929" y="377.345937" style="stroke: #000000; stroke-width: 0.8"/>
      </g>
     </g>
     <g id="text_6">
      <!-- 6000 -->
      <g transform="translate(534.333179 393.803437) scale(0.12 -0.12)">
       <defs>
        <path id="Monaco-36" d="M 913 2275 
Q 1138 2609 1470 2820 
Q 1803 3031 2203 3031 
Q 2581 3031 2920 2847 
Q 3259 2663 3437 2333 
Q 3616 2003 3616 1566 
Q 3616 875 3173 364 
Q 2731 -147 2009 -147 
Q 1159 -147 739 564 
Q 319 1275 319 2372 
Q 319 3584 853 4289 
Q 1388 4994 2300 4994 
Q 2791 4994 3253 4850 
L 3253 4263 
Q 2734 4509 2275 4509 
Q 1625 4509 1269 3912 
Q 913 3316 913 2400 
L 913 2275 
z
M 2053 338 
Q 2288 338 2525 477 
Q 2763 616 2898 905 
Q 3034 1194 3034 1534 
Q 3034 1978 2804 2262 
Q 2575 2547 2150 2547 
Q 1709 2547 1426 2217 
Q 1144 1888 1144 1416 
Q 1144 941 1420 639 
Q 1697 338 2053 338 
z
" transform="scale(0.015625)"/>
       </defs>
       <use xlink:href="#Monaco-36"/>
       <use xlink:href="#Monaco-30" transform="translate(60.009766 0)"/>
       <use xlink:href="#Monaco-30" transform="translate(120.019531 0)"/>
       <use xlink:href="#Monaco-30" transform="translate(180.029297 0)"/>
      </g>
     </g>
    </g>
    <g id="xtick_7">
     <g id="line2d_13">
      <path d="M 637.566347 377.345937 
L 637.566347 24.445938 
" clip-path="url(#p78143791a1)" style="fill: none; stroke-dasharray: 2.96,1.28; stroke-dashoffset: 0; stroke: #b0b0b0; stroke-opacity: 0.7; stroke-width: 0.8"/>
     </g>
     <g id="line2d_14">
      <g>
       <use xlink:href="#m7effa63741" x="637.566347" y="377.345937" style="stroke: #000000; stroke-width: 0.8"/>
      </g>
     </g>
     <g id="text_7">
      <!-- 7000 -->
      <g transform="translate(623.162597 393.803437) scale(0.12 -0.12)">
       <defs>
        <path id="Monaco-37" d="M 997 0 
L 997 434 
Q 997 944 1112 1291 
Q 1228 1638 1518 2063 
Q 1809 2488 1984 2719 
L 2491 3388 
L 2672 3622 
Q 2878 3900 3028 4266 
L 513 4266 
L 513 4850 
L 3591 4850 
L 3591 4463 
Q 3591 4231 3498 4034 
Q 3406 3838 2941 3194 
Q 2828 3041 2719 2888 
L 2394 2431 
Q 2081 1991 1931 1728 
Q 1781 1466 1704 1181 
Q 1628 897 1628 434 
L 1628 0 
L 997 0 
z
" transform="scale(0.015625)"/>
       </defs>
       <use xlink:href="#Monaco-37"/>
       <use xlink:href="#Monaco-30" transform="translate(60.009766 0)"/>
       <use xlink:href="#Monaco-30" transform="translate(120.019531 0)"/>
       <use xlink:href="#Monaco-30" transform="translate(180.029297 0)"/>
      </g>
     </g>
    </g>
    <g id="text_8">
     <!-- Training examples -->
     <g transform="translate(315.209688 409.985312) scale(0.12 -0.12)">
      <defs>
       <path id="Monaco-54" d="M 1603 0 
L 1603 4316 
L 150 4316 
L 150 4850 
L 3691 4850 
L 3691 4316 
L 2234 4316 
L 2234 0 
L 1603 0 
z
" transform="scale(0.015625)"/>
       <path id="Monaco-72" d="M 781 0 
L 781 3491 
L 1363 3491 
L 1363 2728 
Q 1634 3159 1986 3373 
Q 2338 3588 2769 3588 
Q 3084 3588 3400 3491 
L 3400 2231 
L 2841 2231 
L 2841 3028 
Q 2694 3053 2609 3053 
Q 2284 3053 1971 2797 
Q 1659 2541 1363 2028 
L 1363 0 
L 781 0 
z
" transform="scale(0.015625)"/>
       <path id="Monaco-61" d="M 2778 784 
Q 2513 347 2139 125 
Q 1766 -97 1453 -97 
Q 1016 -97 667 281 
Q 319 659 319 1428 
Q 319 2034 550 2511 
Q 781 2988 1168 3264 
Q 1556 3541 2128 3541 
Q 2294 3541 2628 3506 
Q 2678 3500 2778 3491 
L 3363 3491 
L 3363 1025 
Q 3363 394 3494 0 
L 2888 0 
Q 2819 288 2778 784 
z
M 2778 1475 
L 2778 2972 
Q 2469 3053 2203 3053 
Q 1666 3053 1308 2637 
Q 950 2222 950 1506 
Q 950 988 1145 723 
Q 1341 459 1591 459 
Q 1863 459 2191 734 
Q 2519 1009 2778 1475 
z
" transform="scale(0.015625)"/>
       <path id="Monaco-69" d="M 1463 0 
L 1463 3006 
L 494 3006 
L 494 3491 
L 2044 3491 
L 2044 484 
L 3016 484 
L 3016 0 
L 1463 0 
z
M 1366 4750 
Q 1366 4947 1500 5044 
Q 1634 5141 1753 5141 
Q 1875 5141 2009 5044 
Q 2144 4947 2144 4750 
Q 2144 4556 2009 4459 
Q 1875 4363 1753 4363 
Q 1634 4363 1500 4459 
Q 1366 4556 1366 4750 
z
" transform="scale(0.015625)"/>
       <path id="Monaco-6e" d="M 484 0 
L 484 3491 
L 1066 3491 
L 1066 2728 
Q 1316 3131 1669 3359 
Q 2022 3588 2375 3588 
Q 2684 3588 2937 3423 
Q 3191 3259 3292 2993 
Q 3394 2728 3394 1950 
L 3394 0 
L 2813 0 
L 2813 2022 
Q 2813 2525 2764 2686 
Q 2716 2847 2586 2950 
Q 2456 3053 2303 3053 
Q 1997 3053 1645 2762 
Q 1294 2472 1066 2034 
L 1066 0 
L 484 0 
z
" transform="scale(0.015625)"/>
       <path id="Monaco-67" d="M 2816 784 
Q 2550 347 2176 125 
Q 1803 -97 1491 -97 
Q 1053 -97 704 281 
Q 356 659 356 1428 
Q 356 2034 587 2511 
Q 819 2988 1206 3264 
Q 1594 3541 2166 3541 
Q 2331 3541 2666 3506 
Q 2716 3500 2816 3491 
L 3400 3491 
L 3400 1022 
Q 3400 141 3376 -54 
Q 3353 -250 3300 -450 
Q 3175 -916 2729 -1184 
Q 2284 -1453 1653 -1453 
Q 1019 -1453 369 -1128 
L 369 -541 
Q 616 -709 977 -839 
Q 1338 -969 1675 -969 
Q 1941 -969 2178 -884 
Q 2416 -800 2563 -641 
Q 2709 -481 2762 -270 
Q 2816 -59 2816 291 
L 2816 784 
z
M 2816 1475 
L 2816 2972 
Q 2506 3053 2241 3053 
Q 1703 3053 1345 2637 
Q 988 2222 988 1506 
Q 988 988 1183 723 
Q 1378 459 1628 459 
Q 1900 459 2228 734 
Q 2556 1009 2816 1475 
z
" transform="scale(0.015625)"/>
       <path id="Monaco-20" transform="scale(0.015625)"/>
       <path id="Monaco-65" d="M 3388 231 
Q 2691 -100 2069 -100 
Q 1597 -100 1225 134 
Q 853 369 629 805 
Q 406 1241 406 1738 
Q 406 2216 618 2656 
Q 831 3097 1212 3342 
Q 1594 3588 2063 3588 
Q 2684 3588 3061 3144 
Q 3438 2700 3438 1775 
L 3438 1650 
L 1031 1650 
Q 1031 1288 1182 988 
Q 1334 688 1581 538 
Q 1828 388 2144 388 
Q 2706 388 3388 763 
L 3388 231 
z
M 1066 2084 
L 2806 2084 
L 2806 2169 
Q 2806 2597 2597 2850 
Q 2388 3103 2038 3103 
Q 1684 3103 1426 2845 
Q 1169 2588 1066 2084 
z
" transform="scale(0.015625)"/>
       <path id="Monaco-78" d="M 847 0 
L 175 0 
L 1547 1828 
L 266 3491 
L 1009 3491 
L 1919 2319 
L 2803 3491 
L 3463 3491 
L 2250 1884 
L 3691 0 
L 2944 0 
L 1881 1391 
L 847 0 
z
" transform="scale(0.015625)"/>
       <path id="Monaco-6d" d="M 222 0 
L 222 3491 
L 731 3491 
L 731 2691 
Q 972 3200 1180 3394 
Q 1388 3588 1600 3588 
Q 1853 3588 2008 3389 
Q 2163 3191 2163 2825 
L 2163 2638 
Q 2266 2956 2411 3154 
Q 2556 3353 2712 3470 
Q 2869 3588 3072 3588 
Q 3297 3588 3456 3397 
Q 3616 3206 3616 2638 
L 3616 0 
L 3106 0 
L 3106 2384 
Q 3106 2678 3087 2786 
Q 3069 2894 3012 2950 
Q 2956 3006 2891 3006 
Q 2728 3006 2542 2757 
Q 2356 2509 2163 1934 
L 2163 0 
L 1675 0 
L 1675 2381 
Q 1675 2844 1584 2925 
Q 1494 3006 1422 3006 
Q 1263 3006 1080 2728 
Q 897 2450 731 2016 
L 731 0 
L 222 0 
z
" transform="scale(0.015625)"/>
       <path id="Monaco-70" d="M 1022 2706 
Q 1291 3144 1662 3366 
Q 2034 3588 2347 3588 
Q 2784 3588 3134 3209 
Q 3484 2831 3484 2063 
Q 3484 1456 3251 979 
Q 3019 503 2631 226 
Q 2244 -50 1672 -50 
Q 1509 -50 1172 -16 
Q 1122 -9 1022 0 
L 1022 -1356 
L 441 -1356 
L 441 3491 
L 1022 3491 
L 1022 2706 
z
M 1022 2016 
L 1022 519 
Q 1338 438 1603 438 
Q 2131 438 2492 852 
Q 2853 1266 2853 1984 
Q 2853 2506 2656 2768 
Q 2459 3031 2209 3031 
Q 1938 3031 1611 2756 
Q 1284 2481 1022 2016 
z
" transform="scale(0.015625)"/>
       <path id="Monaco-6c" d="M 1422 0 
L 1422 4556 
L 378 4556 
L 378 5044 
L 2003 5044 
L 2003 484 
L 3094 484 
L 3094 0 
L 1422 0 
z
" transform="scale(0.015625)"/>
       <path id="Monaco-73" d="M 525 184 
L 525 800 
Q 875 572 1265 480 
Q 1656 388 1928 388 
Q 2369 388 2562 530 
Q 2756 672 2756 884 
Q 2756 1025 2666 1125 
Q 2575 1225 2216 1372 
L 2016 1453 
L 1613 1613 
Q 963 1866 794 2081 
Q 622 2294 622 2600 
Q 622 3031 955 3309 
Q 1288 3588 2034 3588 
Q 2594 3588 3094 3425 
L 3094 2897 
Q 2519 3103 2013 3103 
Q 1644 3103 1436 2973 
Q 1228 2844 1228 2650 
Q 1228 2463 1409 2350 
Q 1588 2238 1991 2091 
L 2384 1947 
Q 2925 1750 3144 1519 
Q 3363 1288 3363 941 
Q 3363 488 3014 195 
Q 2666 -97 1900 -97 
Q 1231 -97 525 184 
z
" transform="scale(0.015625)"/>
      </defs>
      <use xlink:href="#Monaco-54"/>
      <use xlink:href="#Monaco-72" transform="translate(60.009766 0)"/>
      <use xlink:href="#Monaco-61" transform="translate(120.019531 0)"/>
      <use xlink:href="#Monaco-69" transform="translate(180.029297 0)"/>
      <use xlink:href="#Monaco-6e" transform="translate(240.039062 0)"/>
      <use xlink:href="#Monaco-69" transform="translate(300.048828 0)"/>
      <use xlink:href="#Monaco-6e" transform="translate(360.058594 0)"/>
      <use xlink:href="#Monaco-67" transform="translate(420.068359 0)"/>
      <use xlink:href="#Monaco-20" transform="translate(480.078125 0)"/>
      <use xlink:href="#Monaco-65" transform="translate(540.087891 0)"/>
      <use xlink:href="#Monaco-78" transform="translate(600.097656 0)"/>
      <use xlink:href="#Monaco-61" transform="translate(660.107422 0)"/>
      <use xlink:href="#Monaco-6d" transform="translate(720.117188 0)"/>
      <use xlink:href="#Monaco-70" transform="translate(780.126953 0)"/>
      <use xlink:href="#Monaco-6c" transform="translate(840.136719 0)"/>
      <use xlink:href="#Monaco-65" transform="translate(900.146484 0)"/>
      <use xlink:href="#Monaco-73" transform="translate(960.15625 0)"/>
     </g>
    </g>
   </g>
   <g id="matplotlib.axis_2">
    <g id="ytick_1">
     <g id="line2d_15">
      <path d="M 51.805625 377.345937 
L 701.045625 377.345937 
" clip-path="url(#p78143791a1)" style="fill: none; stroke-dasharray: 2.96,1.28; stroke-dashoffset: 0; stroke: #b0b0b0; stroke-opacity: 0.7; stroke-width: 0.8"/>
     </g>
     <g id="line2d_16">
      <defs>
       <path id="m9140544c66" d="M 0 0 
L -3.5 0 
" style="stroke: #000000; stroke-width: 0.8"/>
      </defs>
      <g>
       <use xlink:href="#m9140544c66" x="51.805625" y="377.345937" style="stroke: #000000; stroke-width: 0.8"/>
      </g>
     </g>
     <g id="text_9">
      <!-- 0.5 -->
      <g transform="translate(23.2 382.074687) scale(0.12 -0.12)">
       <defs>
        <path id="Monaco-2e" d="M 1919 -147 
Q 1709 -147 1559 3 
Q 1409 153 1409 363 
Q 1409 575 1561 723 
Q 1713 872 1919 872 
Q 2125 872 2276 723 
Q 2428 575 2428 363 
Q 2428 153 2278 3 
Q 2128 -147 1919 -147 
z
" transform="scale(0.015625)"/>
       </defs>
       <use xlink:href="#Monaco-30"/>
       <use xlink:href="#Monaco-2e" transform="translate(60.009766 0)"/>
       <use xlink:href="#Monaco-35" transform="translate(120.019531 0)"/>
      </g>
     </g>
    </g>
    <g id="ytick_2">
     <g id="line2d_17">
      <path d="M 51.805625 306.765937 
L 701.045625 306.765937 
" clip-path="url(#p78143791a1)" style="fill: none; stroke-dasharray: 2.96,1.28; stroke-dashoffset: 0; stroke: #b0b0b0; stroke-opacity: 0.7; stroke-width: 0.8"/>
     </g>
     <g id="line2d_18">
      <g>
       <use xlink:href="#m9140544c66" x="51.805625" y="306.765937" style="stroke: #000000; stroke-width: 0.8"/>
      </g>
     </g>
     <g id="text_10">
      <!-- 0.6 -->
      <g transform="translate(23.2 311.494687) scale(0.12 -0.12)">
       <use xlink:href="#Monaco-30"/>
       <use xlink:href="#Monaco-2e" transform="translate(60.009766 0)"/>
       <use xlink:href="#Monaco-36" transform="translate(120.019531 0)"/>
      </g>
     </g>
    </g>
    <g id="ytick_3">
     <g id="line2d_19">
      <path d="M 51.805625 236.185937 
L 701.045625 236.185937 
" clip-path="url(#p78143791a1)" style="fill: none; stroke-dasharray: 2.96,1.28; stroke-dashoffset: 0; stroke: #b0b0b0; stroke-opacity: 0.7; stroke-width: 0.8"/>
     </g>
     <g id="line2d_20">
      <g>
       <use xlink:href="#m9140544c66" x="51.805625" y="236.185937" style="stroke: #000000; stroke-width: 0.8"/>
      </g>
     </g>
     <g id="text_11">
      <!-- 0.7 -->
      <g transform="translate(23.2 240.914687) scale(0.12 -0.12)">
       <use xlink:href="#Monaco-30"/>
       <use xlink:href="#Monaco-2e" transform="translate(60.009766 0)"/>
       <use xlink:href="#Monaco-37" transform="translate(120.019531 0)"/>
      </g>
     </g>
    </g>
    <g id="ytick_4">
     <g id="line2d_21">
      <path d="M 51.805625 165.605937 
L 701.045625 165.605937 
" clip-path="url(#p78143791a1)" style="fill: none; stroke-dasharray: 2.96,1.28; stroke-dashoffset: 0; stroke: #b0b0b0; stroke-opacity: 0.7; stroke-width: 0.8"/>
     </g>
     <g id="line2d_22">
      <g>
       <use xlink:href="#m9140544c66" x="51.805625" y="165.605937" style="stroke: #000000; stroke-width: 0.8"/>
      </g>
     </g>
     <g id="text_12">
      <!-- 0.8 -->
      <g transform="translate(23.2 170.334687) scale(0.12 -0.12)">
       <defs>
        <path id="Monaco-38" d="M 1434 2616 
L 1328 2694 
Q 1106 2850 893 3154 
Q 681 3459 681 3825 
Q 681 4309 1062 4651 
Q 1444 4994 2031 4994 
Q 2391 4994 2678 4864 
Q 2966 4734 3122 4481 
Q 3278 4228 3278 3928 
Q 3278 3722 3206 3530 
Q 3134 3338 2992 3148 
Q 2850 2959 2428 2616 
L 2691 2406 
Q 3150 2031 3309 1759 
Q 3469 1488 3469 1150 
Q 3469 625 3087 239 
Q 2706 -147 1944 -147 
Q 1178 -147 797 214 
Q 416 575 416 1109 
Q 416 1906 1434 2616 
z
M 2031 2913 
Q 2472 3247 2583 3472 
Q 2694 3697 2694 3891 
Q 2694 4125 2487 4317 
Q 2281 4509 1956 4509 
Q 1606 4509 1423 4300 
Q 1241 4091 1241 3866 
Q 1241 3647 1394 3453 
Q 1547 3259 1884 3019 
L 2031 2913 
z
M 1872 2306 
Q 1047 1672 1047 1119 
Q 1047 791 1319 566 
Q 1591 341 1963 341 
Q 2303 341 2572 556 
Q 2841 772 2841 1094 
Q 2841 1409 2514 1734 
Q 2188 2059 2059 2159 
L 1872 2306 
z
" transform="scale(0.015625)"/>
       </defs>
       <use xlink:href="#Monaco-30"/>
       <use xlink:href="#Monaco-2e" transform="translate(60.009766 0)"/>
       <use xlink:href="#Monaco-38" transform="translate(120.019531 0)"/>
      </g>
     </g>
    </g>
    <g id="ytick_5">
     <g id="line2d_23">
      <path d="M 51.805625 95.025937 
L 701.045625 95.025937 
" clip-path="url(#p78143791a1)" style="fill: none; stroke-dasharray: 2.96,1.28; stroke-dashoffset: 0; stroke: #b0b0b0; stroke-opacity: 0.7; stroke-width: 0.8"/>
     </g>
     <g id="line2d_24">
      <g>
       <use xlink:href="#m9140544c66" x="51.805625" y="95.025937" style="stroke: #000000; stroke-width: 0.8"/>
      </g>
     </g>
     <g id="text_13">
      <!-- 0.9 -->
      <g transform="translate(23.2 99.754687) scale(0.12 -0.12)">
       <defs>
        <path id="Monaco-39" d="M 2925 2575 
Q 2700 2241 2367 2030 
Q 2034 1819 1634 1819 
Q 1256 1819 917 2001 
Q 578 2184 400 2515 
Q 222 2847 222 3284 
Q 222 3972 664 4483 
Q 1106 4994 1828 4994 
Q 2678 4994 3098 4283 
Q 3519 3572 3519 2475 
Q 3519 1263 2984 558 
Q 2450 -147 1538 -147 
Q 1047 -147 584 0 
L 584 584 
Q 1103 341 1563 341 
Q 2213 341 2569 937 
Q 2925 1534 2925 2450 
L 2925 2575 
z
M 1784 4509 
Q 1550 4509 1312 4370 
Q 1075 4231 939 3943 
Q 803 3656 803 3313 
Q 803 2872 1033 2587 
Q 1263 2303 1688 2303 
Q 2128 2303 2411 2633 
Q 2694 2963 2694 3431 
Q 2694 3906 2417 4207 
Q 2141 4509 1784 4509 
z
" transform="scale(0.015625)"/>
       </defs>
       <use xlink:href="#Monaco-30"/>
       <use xlink:href="#Monaco-2e" transform="translate(60.009766 0)"/>
       <use xlink:href="#Monaco-39" transform="translate(120.019531 0)"/>
      </g>
     </g>
    </g>
    <g id="ytick_6">
     <g id="line2d_25">
      <path d="M 51.805625 24.445937 
L 701.045625 24.445937 
" clip-path="url(#p78143791a1)" style="fill: none; stroke-dasharray: 2.96,1.28; stroke-dashoffset: 0; stroke: #b0b0b0; stroke-opacity: 0.7; stroke-width: 0.8"/>
     </g>
     <g id="line2d_26">
      <g>
       <use xlink:href="#m9140544c66" x="51.805625" y="24.445937" style="stroke: #000000; stroke-width: 0.8"/>
      </g>
     </g>
     <g id="text_14">
      <!-- 1.0 -->
      <g transform="translate(23.2 29.174687) scale(0.12 -0.12)">
       <use xlink:href="#Monaco-31"/>
       <use xlink:href="#Monaco-2e" transform="translate(60.009766 0)"/>
       <use xlink:href="#Monaco-30" transform="translate(120.019531 0)"/>
      </g>
     </g>
    </g>
    <g id="text_15">
     <!-- Score (AUC-ROC) -->
     <g transform="translate(16.6575 254.91) rotate(-90) scale(0.12 -0.12)">
      <defs>
       <path id="Monaco-53" d="M 491 103 
L 491 697 
Q 1241 341 1853 341 
Q 2109 341 2343 439 
Q 2578 538 2698 722 
Q 2819 906 2819 1122 
Q 2819 1375 2653 1595 
Q 2488 1816 2031 2081 
L 1713 2266 
L 1391 2450 
Q 541 2953 541 3700 
Q 541 4247 920 4620 
Q 1300 4994 2106 4994 
Q 2625 4994 3109 4844 
L 3109 4303 
Q 2575 4509 2069 4509 
Q 1666 4509 1417 4296 
Q 1169 4084 1169 3784 
Q 1169 3488 1359 3291 
Q 1550 3094 1847 2928 
L 2091 2781 
L 2394 2597 
L 2650 2447 
Q 3447 1959 3447 1222 
Q 3447 659 3037 256 
Q 2628 -147 1725 -147 
Q 1438 -147 1177 -98 
Q 916 -50 491 103 
z
" transform="scale(0.015625)"/>
       <path id="Monaco-63" d="M 3422 100 
Q 2838 -97 2309 -97 
Q 1784 -97 1376 145 
Q 969 388 741 802 
Q 513 1216 513 1744 
Q 513 2538 1030 3063 
Q 1547 3588 2278 3588 
Q 2819 3588 3422 3384 
L 3422 2825 
Q 2813 3103 2331 3103 
Q 2013 3103 1731 2945 
Q 1450 2788 1297 2453 
Q 1144 2119 1144 1766 
Q 1144 1294 1439 866 
Q 1734 438 2366 438 
Q 2556 438 2740 464 
Q 2925 491 3422 659 
L 3422 100 
z
" transform="scale(0.015625)"/>
       <path id="Monaco-6f" d="M 1922 -97 
Q 1172 -97 722 426 
Q 272 950 272 1747 
Q 272 2544 722 3066 
Q 1172 3588 1922 3588 
Q 2669 3588 3119 3066 
Q 3569 2544 3569 1747 
Q 3569 950 3119 426 
Q 2669 -97 1922 -97 
z
M 1922 388 
Q 2388 388 2663 750 
Q 2938 1113 2938 1747 
Q 2938 2378 2663 2740 
Q 2388 3103 1922 3103 
Q 1453 3103 1178 2740 
Q 903 2378 903 1747 
Q 903 1113 1178 750 
Q 1453 388 1922 388 
z
" transform="scale(0.015625)"/>
       <path id="Monaco-28" d="M 3350 -1163 
Q 2484 -1109 1890 -673 
Q 1297 -238 942 503 
Q 588 1244 588 1988 
Q 588 2731 942 3472 
Q 1297 4213 1890 4648 
Q 2484 5084 3350 5141 
L 3350 4653 
Q 2697 4594 2226 4214 
Q 1756 3834 1487 3246 
Q 1219 2659 1219 1988 
Q 1219 1316 1487 728 
Q 1756 141 2226 -237 
Q 2697 -616 3350 -678 
L 3350 -1163 
z
" transform="scale(0.015625)"/>
       <path id="Monaco-41" d="M 709 0 
L 103 0 
L 1597 4850 
L 2238 4850 
L 3741 0 
L 3075 0 
L 2744 1066 
L 1038 1066 
L 709 0 
z
M 1188 1550 
L 2603 1550 
L 2019 3391 
L 1881 3878 
L 1759 3391 
L 1188 1550 
z
" transform="scale(0.015625)"/>
       <path id="Monaco-55" d="M 394 4850 
L 1025 4850 
L 1025 1666 
Q 1025 1038 1129 808 
Q 1234 578 1451 458 
Q 1669 338 1934 338 
Q 2216 338 2436 467 
Q 2656 597 2761 873 
Q 2866 1150 2866 1913 
L 2866 4850 
L 3447 4850 
L 3447 1684 
Q 3447 1006 3245 623 
Q 3044 241 2719 47 
Q 2394 -147 1900 -147 
Q 1444 -147 1097 22 
Q 750 191 572 528 
Q 394 866 394 1747 
L 394 4850 
z
" transform="scale(0.015625)"/>
       <path id="Monaco-43" d="M 3400 56 
Q 2856 -147 2425 -147 
Q 1856 -147 1378 158 
Q 900 463 634 1064 
Q 369 1666 369 2425 
Q 369 3178 631 3778 
Q 894 4378 1372 4687 
Q 1850 4997 2425 4997 
Q 2856 4997 3400 4794 
L 3400 4219 
Q 2897 4509 2400 4509 
Q 2025 4509 1714 4253 
Q 1403 3997 1212 3501 
Q 1022 3006 1022 2425 
Q 1022 1834 1219 1334 
Q 1416 834 1722 586 
Q 2028 338 2400 338 
Q 2894 338 3400 628 
L 3400 56 
z
" transform="scale(0.015625)"/>
       <path id="Monaco-2d" d="M 709 1722 
L 709 2206 
L 3134 2206 
L 3134 1722 
L 709 1722 
z
" transform="scale(0.015625)"/>
       <path id="Monaco-52" d="M 1097 2059 
L 1097 0 
L 466 0 
L 466 4850 
L 1763 4850 
Q 2397 4850 2697 4720 
Q 2997 4591 3161 4328 
Q 3325 4066 3325 3763 
Q 3325 3481 3215 3197 
Q 3106 2913 2914 2689 
Q 2722 2466 2359 2266 
L 3763 0 
L 3013 0 
L 1728 2059 
L 1097 2059 
z
M 1097 2547 
L 1981 2547 
Q 2278 2709 2423 2878 
Q 2569 3047 2644 3237 
Q 2719 3428 2719 3619 
Q 2719 3959 2470 4161 
Q 2222 4363 1569 4363 
L 1097 4363 
L 1097 2547 
z
" transform="scale(0.015625)"/>
       <path id="Monaco-4f" d="M 1919 -147 
Q 1094 -147 658 548 
Q 222 1244 222 2425 
Q 222 3603 658 4298 
Q 1094 4994 1919 4994 
Q 2747 4994 3181 4298 
Q 3616 3603 3616 2425 
Q 3616 1244 3181 548 
Q 2747 -147 1919 -147 
z
M 1919 341 
Q 2375 341 2679 858 
Q 2984 1375 2984 2425 
Q 2984 3475 2679 3992 
Q 2375 4509 1919 4509 
Q 1463 4509 1158 3992 
Q 853 3475 853 2425 
Q 853 1375 1158 858 
Q 1463 341 1919 341 
z
" transform="scale(0.015625)"/>
       <path id="Monaco-29" d="M 491 5141 
Q 1356 5084 1950 4648 
Q 2544 4213 2898 3472 
Q 3253 2731 3253 1988 
Q 3253 1244 2898 503 
Q 2544 -238 1950 -673 
Q 1356 -1109 491 -1163 
L 491 -678 
Q 1144 -616 1614 -237 
Q 2084 141 2354 728 
Q 2625 1316 2625 1988 
Q 2625 2659 2354 3246 
Q 2084 3834 1614 4214 
Q 1144 4594 491 4653 
L 491 5141 
z
" transform="scale(0.015625)"/>
      </defs>
      <use xlink:href="#Monaco-53"/>
      <use xlink:href="#Monaco-63" transform="translate(60.009766 0)"/>
      <use xlink:href="#Monaco-6f" transform="translate(120.019531 0)"/>
      <use xlink:href="#Monaco-72" transform="translate(180.029297 0)"/>
      <use xlink:href="#Monaco-65" transform="translate(240.039062 0)"/>
      <use xlink:href="#Monaco-20" transform="translate(300.048828 0)"/>
      <use xlink:href="#Monaco-28" transform="translate(360.058594 0)"/>
      <use xlink:href="#Monaco-41" transform="translate(420.068359 0)"/>
      <use xlink:href="#Monaco-55" transform="translate(480.078125 0)"/>
      <use xlink:href="#Monaco-43" transform="translate(540.087891 0)"/>
      <use xlink:href="#Monaco-2d" transform="translate(600.097656 0)"/>
      <use xlink:href="#Monaco-52" transform="translate(660.107422 0)"/>
      <use xlink:href="#Monaco-4f" transform="translate(720.117188 0)"/>
      <use xlink:href="#Monaco-43" transform="translate(780.126953 0)"/>
      <use xlink:href="#Monaco-29" transform="translate(840.136719 0)"/>
     </g>
    </g>
   </g>
   <g id="line2d_27">
    <path d="M 81.316534 26.722512 
L 228.862197 44.887427 
L 376.407859 59.775365 
L 523.953522 65.195028 
L 671.534716 77.09689 
" clip-path="url(#p78143791a1)" style="fill: none; stroke: #dc3545; stroke-width: 2; stroke-linecap: square"/>
    <defs>
     <path id="mb00d548dee" d="M 0 3 
C 0.795609 3 1.55874 2.683901 2.12132 2.12132 
C 2.683901 1.55874 3 0.795609 3 0 
C 3 -0.795609 2.683901 -1.55874 2.12132 -2.12132 
C 1.55874 -2.683901 0.795609 -3 0 -3 
C -0.795609 -3 -1.55874 -2.683901 -2.12132 -2.12132 
C -2.683901 -1.55874 -3 -0.795609 -3 0 
C -3 0.795609 -2.683901 1.55874 -2.12132 2.12132 
C -1.55874 2.683901 -0.795609 3 0 3 
z
" style="stroke: #dc3545"/>
    </defs>
    <g clip-path="url(#p78143791a1)">
     <use xlink:href="#mb00d548dee" x="81.316534" y="26.722512" style="fill: #dc3545; stroke: #dc3545"/>
     <use xlink:href="#mb00d548dee" x="228.862197" y="44.887427" style="fill: #dc3545; stroke: #dc3545"/>
     <use xlink:href="#mb00d548dee" x="376.407859" y="59.775365" style="fill: #dc3545; stroke: #dc3545"/>
     <use xlink:href="#mb00d548dee" x="523.953522" y="65.195028" style="fill: #dc3545; stroke: #dc3545"/>
     <use xlink:href="#mb00d548dee" x="671.534716" y="77.09689" style="fill: #dc3545; stroke: #dc3545"/>
    </g>
   </g>
   <g id="line2d_28">
    <path d="M 81.316534 204.790311 
L 228.862197 181.304166 
L 376.407859 175.118817 
L 523.953522 162.162688 
L 671.534716 157.118154 
" clip-path="url(#p78143791a1)" style="fill: none; stroke: #28a745; stroke-width: 2; stroke-linecap: square"/>
    <defs>
     <path id="mc8039b2d07" d="M 0 3 
C 0.795609 3 1.55874 2.683901 2.12132 2.12132 
C 2.683901 1.55874 3 0.795609 3 0 
C 3 -0.795609 2.683901 -1.55874 2.12132 -2.12132 
C 1.55874 -2.683901 0.795609 -3 0 -3 
C -0.795609 -3 -1.55874 -2.683901 -2.12132 -2.12132 
C -2.683901 -1.55874 -3 -0.795609 -3 0 
C -3 0.795609 -2.683901 1.55874 -2.12132 2.12132 
C -1.55874 2.683901 -0.795609 3 0 3 
z
" style="stroke: #28a745"/>
    </defs>
    <g clip-path="url(#p78143791a1)">
     <use xlink:href="#mc8039b2d07" x="81.316534" y="204.790311" style="fill: #28a745; stroke: #28a745"/>
     <use xlink:href="#mc8039b2d07" x="228.862197" y="181.304166" style="fill: #28a745; stroke: #28a745"/>
     <use xlink:href="#mc8039b2d07" x="376.407859" y="175.118817" style="fill: #28a745; stroke: #28a745"/>
     <use xlink:href="#mc8039b2d07" x="523.953522" y="162.162688" style="fill: #28a745; stroke: #28a745"/>
     <use xlink:href="#mc8039b2d07" x="671.534716" y="157.118154" style="fill: #28a745; stroke: #28a745"/>
    </g>
   </g>
   <g id="patch_3">
    <path d="M 51.805625 377.345937 
L 51.805625 24.445937 
" style="fill: none; stroke: #000000; stroke-width: 0.8; stroke-linejoin: miter; stroke-linecap: square"/>
   </g>
   <g id="patch_4">
    <path d="M 701.045625 377.345937 
L 701.045625 24.445937 
" style="fill: none; stroke: #000000; stroke-width: 0.8; stroke-linejoin: miter; stroke-linecap: square"/>
   </g>
   <g id="patch_5">
    <path d="M 51.805625 377.345937 
L 701.045625 377.345937 
" style="fill: none; stroke: #000000; stroke-width: 0.8; stroke-linejoin: miter; stroke-linecap: square"/>
   </g>
   <g id="patch_6">
    <path d="M 51.805625 24.445938 
L 701.045625 24.445938 
" style="fill: none; stroke: #000000; stroke-width: 0.8; stroke-linejoin: miter; stroke-linecap: square"/>
   </g>
   <g id="text_16">
    <!-- FNN Learning Curve -->
    <g transform="translate(300.805938 18.445937) scale(0.14 -0.14)">
     <defs>
      <path id="Monaco-46" d="M 709 0 
L 709 4850 
L 3375 4850 
L 3375 4363 
L 1341 4363 
L 1341 2716 
L 3181 2716 
L 3181 2231 
L 1341 2231 
L 1341 0 
L 709 0 
z
" transform="scale(0.015625)"/>
      <path id="Monaco-4e" d="M 975 0 
L 394 0 
L 394 4850 
L 963 4850 
L 2678 1622 
L 2866 1141 
L 2881 1141 
L 2866 1622 
L 2866 4850 
L 3447 4850 
L 3447 0 
L 2866 0 
L 1197 3175 
L 963 3684 
L 975 3181 
L 975 0 
z
" transform="scale(0.015625)"/>
      <path id="Monaco-4c" d="M 3303 534 
L 3303 0 
L 684 0 
L 684 4850 
L 1316 4850 
L 1316 534 
L 3303 534 
z
" transform="scale(0.015625)"/>
      <path id="Monaco-75" d="M 3356 3491 
L 3356 0 
L 2775 0 
L 2775 766 
Q 2494 334 2150 118 
Q 1806 -97 1463 -97 
Q 1156 -97 901 67 
Q 647 231 547 498 
Q 447 766 447 1541 
L 447 3491 
L 1028 3491 
L 1028 1469 
Q 1028 966 1076 805 
Q 1125 644 1254 541 
Q 1384 438 1534 438 
Q 1841 438 2192 727 
Q 2544 1016 2775 1456 
L 2775 3491 
L 3356 3491 
z
" transform="scale(0.015625)"/>
      <path id="Monaco-76" d="M 1619 0 
L 103 3491 
L 741 3491 
L 1938 728 
L 3159 3491 
L 3741 3491 
L 2213 0 
L 1619 0 
z
" transform="scale(0.015625)"/>
     </defs>
     <use xlink:href="#Monaco-46"/>
     <use xlink:href="#Monaco-4e" transform="translate(60.009766 0)"/>
     <use xlink:href="#Monaco-4e" transform="translate(120.019531 0)"/>
     <use xlink:href="#Monaco-20" transform="translate(180.029297 0)"/>
     <use xlink:href="#Monaco-4c" transform="translate(240.039062 0)"/>
     <use xlink:href="#Monaco-65" transform="translate(300.048828 0)"/>
     <use xlink:href="#Monaco-61" transform="translate(360.058594 0)"/>
     <use xlink:href="#Monaco-72" transform="translate(420.068359 0)"/>
     <use xlink:href="#Monaco-6e" transform="translate(480.078125 0)"/>
     <use xlink:href="#Monaco-69" transform="translate(540.087891 0)"/>
     <use xlink:href="#Monaco-6e" transform="translate(600.097656 0)"/>
     <use xlink:href="#Monaco-67" transform="translate(660.107422 0)"/>
     <use xlink:href="#Monaco-20" transform="translate(720.117188 0)"/>
     <use xlink:href="#Monaco-43" transform="translate(780.126953 0)"/>
     <use xlink:href="#Monaco-75" transform="translate(840.136719 0)"/>
     <use xlink:href="#Monaco-72" transform="translate(900.146484 0)"/>
     <use xlink:href="#Monaco-76" transform="translate(960.15625 0)"/>
     <use xlink:href="#Monaco-65" transform="translate(1020.166016 0)"/>
    </g>
   </g>
   <g id="legend_1">
    <g id="patch_7">
     <path d="M 60.205625 371.345937 
L 257.046875 371.345937 
Q 259.446875 371.345937 259.446875 368.945937 
L 259.446875 333.782187 
Q 259.446875 331.382187 257.046875 331.382187 
L 60.205625 331.382187 
Q 57.805625 331.382187 57.805625 333.782187 
L 57.805625 368.945937 
Q 57.805625 371.345937 60.205625 371.345937 
z
" style="fill: #ffffff; opacity: 0.8; stroke: #cccccc; stroke-linejoin: miter"/>
    </g>
    <g id="line2d_29">
     <path d="M 62.605625 341.621562 
L 74.605625 341.621562 
L 86.605625 341.621562 
" style="fill: none; stroke: #dc3545; stroke-width: 2; stroke-linecap: square"/>
     <g>
      <use xlink:href="#mb00d548dee" x="74.605625" y="341.621562" style="fill: #dc3545; stroke: #dc3545"/>
     </g>
    </g>
    <g id="text_17">
     <!-- Training score -->
     <g transform="translate(96.205625 345.821562) scale(0.12 -0.12)">
      <use xlink:href="#Monaco-54"/>
      <use xlink:href="#Monaco-72" transform="translate(60.009766 0)"/>
      <use xlink:href="#Monaco-61" transform="translate(120.019531 0)"/>
      <use xlink:href="#Monaco-69" transform="translate(180.029297 0)"/>
      <use xlink:href="#Monaco-6e" transform="translate(240.039062 0)"/>
      <use xlink:href="#Monaco-69" transform="translate(300.048828 0)"/>
      <use xlink:href="#Monaco-6e" transform="translate(360.058594 0)"/>
      <use xlink:href="#Monaco-67" transform="translate(420.068359 0)"/>
      <use xlink:href="#Monaco-20" transform="translate(480.078125 0)"/>
      <use xlink:href="#Monaco-73" transform="translate(540.087891 0)"/>
      <use xlink:href="#Monaco-63" transform="translate(600.097656 0)"/>
      <use xlink:href="#Monaco-6f" transform="translate(660.107422 0)"/>
      <use xlink:href="#Monaco-72" transform="translate(720.117188 0)"/>
      <use xlink:href="#Monaco-65" transform="translate(780.126953 0)"/>
     </g>
    </g>
    <g id="line2d_30">
     <path d="M 62.605625 359.803437 
L 74.605625 359.803437 
L 86.605625 359.803437 
" style="fill: none; stroke: #28a745; stroke-width: 2; stroke-linecap: square"/>
     <g>
      <use xlink:href="#mc8039b2d07" x="74.605625" y="359.803437" style="fill: #28a745; stroke: #28a745"/>
     </g>
    </g>
    <g id="text_18">
     <!-- Cross-validation score -->
     <g transform="translate(96.205625 364.003437) scale(0.12 -0.12)">
      <defs>
       <path id="Monaco-64" d="M 2816 784 
Q 2550 347 2176 125 
Q 1803 -97 1491 -97 
Q 1053 -97 704 281 
Q 356 659 356 1428 
Q 356 2034 587 2511 
Q 819 2988 1206 3264 
Q 1594 3541 2166 3541 
Q 2331 3541 2666 3506 
Q 2716 3500 2816 3491 
L 2816 5044 
L 3400 5044 
L 3400 0 
L 2816 0 
L 2816 784 
z
M 2816 1475 
L 2816 2972 
Q 2506 3053 2241 3053 
Q 1703 3053 1345 2637 
Q 988 2222 988 1506 
Q 988 988 1183 723 
Q 1378 459 1628 459 
Q 1900 459 2228 734 
Q 2556 1009 2816 1475 
z
" transform="scale(0.015625)"/>
       <path id="Monaco-74" d="M 3403 141 
Q 2994 -31 2809 -64 
Q 2625 -97 2453 -97 
Q 2088 -97 1784 43 
Q 1481 184 1326 459 
Q 1172 734 1172 1309 
L 1172 2716 
L 300 2716 
L 300 3200 
L 1172 3200 
L 1172 4606 
L 1753 4606 
L 1753 3200 
L 3306 3200 
L 3306 2716 
L 1753 2716 
L 1753 1319 
Q 1753 897 1853 723 
Q 1953 550 2120 469 
Q 2288 388 2516 388 
Q 2938 388 3403 653 
L 3403 141 
z
" transform="scale(0.015625)"/>
      </defs>
      <use xlink:href="#Monaco-43"/>
      <use xlink:href="#Monaco-72" transform="translate(60.009766 0)"/>
      <use xlink:href="#Monaco-6f" transform="translate(120.019531 0)"/>
      <use xlink:href="#Monaco-73" transform="translate(180.029297 0)"/>
      <use xlink:href="#Monaco-73" transform="translate(240.039062 0)"/>
      <use xlink:href="#Monaco-2d" transform="translate(300.048828 0)"/>
      <use xlink:href="#Monaco-76" transform="translate(360.058594 0)"/>
      <use xlink:href="#Monaco-61" transform="translate(420.068359 0)"/>
      <use xlink:href="#Monaco-6c" transform="translate(480.078125 0)"/>
      <use xlink:href="#Monaco-69" transform="translate(540.087891 0)"/>
      <use xlink:href="#Monaco-64" transform="translate(600.097656 0)"/>
      <use xlink:href="#Monaco-61" transform="translate(660.107422 0)"/>
      <use xlink:href="#Monaco-74" transform="translate(720.117188 0)"/>
      <use xlink:href="#Monaco-69" transform="translate(780.126953 0)"/>
      <use xlink:href="#Monaco-6f" transform="translate(840.136719 0)"/>
      <use xlink:href="#Monaco-6e" transform="translate(900.146484 0)"/>
      <use xlink:href="#Monaco-20" transform="translate(960.15625 0)"/>
      <use xlink:href="#Monaco-73" transform="translate(1020.166016 0)"/>
      <use xlink:href="#Monaco-63" transform="translate(1080.175781 0)"/>
      <use xlink:href="#Monaco-6f" transform="translate(1140.185547 0)"/>
      <use xlink:href="#Monaco-72" transform="translate(1200.195312 0)"/>
      <use xlink:href="#Monaco-65" transform="translate(1260.205078 0)"/>
     </g>
    </g>
   </g>
  </g>
 </g>
 <defs>
  <clipPath id="p78143791a1">
   <rect x="51.805625" y="24.445937" width="649.24" height="352.9"/>
  </clipPath>
 </defs>
</svg>
